<?xml version="1.0" standalone="no"?>
<!DOCTYPE svg PUBLIC "-//W3C//DTD SVG 20010904//EN"
 "http://www.w3.org/TR/2001/REC-SVG-20010904/DTD/svg10.dtd">
<svg version="1.0" xmlns="http://www.w3.org/2000/svg"
 width="300.000000pt" height="300.000000pt" viewBox="0 0 300.000000 300.000000"
 preserveAspectRatio="xMidYMid meet">
<metadata>
Created by potrace 1.11, written by Peter Selinger 2001-2013
</metadata>
<g transform="translate(0.000000,300.000000) scale(0.100000,-0.100000)"
fill="#000000" stroke="none">
<path d="M0 1500 l0 -1500 1500 0 1500 0 0 1500 0 1500 -1500 0 -1500 0 0
-1500z m819 610 c204 -23 338 -151 349 -333 8 -135 -43 -239 -153 -310 -64
-40 -64 -41 -42 -55 77 -52 126 -121 253 -363 52 -100 102 -192 111 -205 l16
-25 -143 3 -143 3 -89 165 c-181 334 -218 371 -363 374 l-70 1 -3 -272 -2
-273 -125 0 -125 0 0 643 c0 354 3 647 7 650 10 11 427 8 522 -3z m1041 -290
c135 -165 248 -300 251 -300 3 0 112 130 241 288 130 159 243 294 251 301 9 7
34 11 59 9 l43 -3 3 -647 2 -648 -55 0 -55 0 -2 569 -3 569 -239 -294 c-132
-162 -242 -294 -245 -294 -3 0 -114 133 -246 295 l-240 294 -3 -569 -2 -570
-50 0 -50 0 0 650 0 650 48 0 47 0 245 -300z"/>
<path d="M542 1743 l3 -178 116 1 c103 0 120 3 159 25 65 36 84 68 88 147 3
57 0 72 -20 102 -13 19 -43 45 -68 58 -38 19 -60 22 -162 22 l-118 0 2 -177z"/>
</g>
</svg>
